<svg xmlns="http://www.w3.org/2000/svg" xmlns:xlink="http://www.w3.org/1999/xlink" width="48" height="48" viewBox="362.3617248535156 125.37146759033203 542.256103515625 554.7529830932617"><path fill="#0292D5" d="M769.215 164.841C803.316 156.594 843.204 153.31 874.478 172.426C888.565 180.913 898.648 194.71 902.459 210.71C915.726 265.182 864.859 331.841 831.342 369.789L831.35 386.763C837.636 376.804 847.773 365.193 857.414 358.476C879.427 364.767 884.938 380.886 878.618 401.113C871.076 425.251 863.401 429.878 843.914 442.848L815.006 462.198C802.008 470.972 775.759 490.813 760.207 497.379C758.154 498.246 743.338 495.318 739.834 494.656L697.168 486.417C688.204 484.602 650.736 472.778 658.409 492.374C659.907 495.053 665.888 496.662 668.493 497.056C696.478 501.282 723.919 508.339 751.941 512.205C759.455 513.242 765.081 512.709 771.677 508.75C788.394 498.718 803.978 486.871 820.11 475.936C836.388 464.296 855.47 453.754 869.113 439.278C875.442 432.083 881.569 414.074 885.8 405.538C886.14 419.15 886.343 432.764 886.409 446.38C886.519 457.751 887.443 473.748 884.746 484.469C882.523 493.58 877.92 501.936 871.41 508.685C866.575 513.76 837.542 530.417 829.685 535.113L749.762 582.787L713.736 604.393C706.628 608.664 698.438 613.88 691.048 617.445C684.441 620.584 677.226 622.237 669.912 622.286C652.614 622.537 634.799 609.075 620.269 600.171C602.457 589.188 584.541 578.374 566.525 567.729C555.137 573.423 523.66 587.857 512.089 590.448C487.497 599.035 448.262 606.349 422.389 602.15C317.727 585.164 370.853 475.401 424.462 435.018C413.158 448.918 402.831 462.89 394.486 478.773C379.816 506.693 374.473 548.514 408.941 564.547C443.256 580.507 485.174 568 518.966 556.608C521.545 555.014 529.269 552.178 532.397 550.919C552.752 542.719 570.883 532.784 589.632 521.502C596.001 527.932 603.031 532.051 612.404 530.311C618.873 529.05 624.549 525.208 628.124 519.669C631.929 513.771 633.165 506.575 631.548 499.744C629.601 491.233 625.136 486.919 618.092 482.474C625.453 451.203 633.4 421.427 642.57 390.565C648.353 371.103 653.327 347.038 662.659 329.032C667.634 319.434 679.983 308.233 687.823 301.039C691.983 304.462 695.056 306.601 700.469 307.718C706.957 309.041 713.703 307.657 719.146 303.887C724.887 299.923 728.778 293.802 729.929 286.921C731.27 278.932 728.984 273.221 724.41 266.911C738.782 252.594 756.055 241.394 772.58 229.762C780.671 224.37 790.066 218.94 800.106 219.089C832.157 219.566 830.948 261.094 830.955 283.475L830.845 325.087C834.52 320.458 838.044 315.711 841.411 310.854C860.284 284.051 881.573 246.237 875.398 211.966C872.941 198.193 864.984 186.013 853.359 178.231C832.055 163.829 794.863 161.567 770.336 166.345L769.215 164.841Z"/><path fill="#034184" d="M512.089 590.448C487.497 599.035 448.262 606.349 422.389 602.15C317.727 585.164 370.853 475.401 424.462 435.018C413.158 448.918 402.831 462.89 394.486 478.773C379.816 506.693 374.473 548.514 408.941 564.547C443.256 580.507 485.174 568 518.966 556.608L519.058 557.504C515.825 559.141 511.588 560.431 508.109 561.549C487.742 568.092 466.192 573.109 444.685 572.959C442.011 572.941 437.129 573.324 434.831 572.454C429.666 576.408 427.767 596.193 430.371 601.053C432.806 602.214 439.986 602.03 442.849 601.981C465.573 601.585 487.805 596.608 509.469 590.064C510.413 589.779 511.223 590.047 512.089 590.448Z"/><path fill="white" d="M662.942 424.61C667.857 423.991 700.414 429.588 707.69 430.734L788.396 443.167C791.414 443.627 794.326 444.121 797.308 444.743C806.666 446.695 806.134 454.513 798.974 459.38C793.416 460.517 779.825 457.666 773.591 456.72C756.402 454.174 739.229 451.514 722.075 448.742C704.628 445.972 687.051 443.655 669.613 440.852C667.324 440.244 661.403 439.574 659.829 437.856C654.899 432.479 658.768 428.005 662.942 424.61Z"/><path fill="white" d="M662.806 454.994C670.474 454.647 770.926 471.224 773.539 473.473C774.063 473.925 774.036 474.541 774.035 475.184C774.025 478.909 769.771 483.089 767.268 485.442C765.142 486.503 763.153 486.638 760.826 486.298C746.63 484.225 732.383 481.449 718.21 479.187C706.605 477.385 695.014 475.499 683.437 473.53C677.318 472.492 671.06 471.633 665.057 470.094C655.497 467.644 655.286 460.356 662.806 454.994Z"/><path fill="white" d="M804.401 301.381C811.739 301.125 817.78 299.284 817.644 308.608C817.552 314.936 817.624 321.471 817.558 327.824L817.334 362.697C817.212 377.542 817.613 392.652 817.234 407.484C817.189 409.232 816.75 410.273 815.642 411.639C808.079 412.14 802.486 413.651 802.536 404.35C802.569 398.207 802.46 391.796 802.46 385.625L802.521 348.1C802.574 334.235 802.11 319.888 802.644 306.051C802.716 304.195 803.2 302.83 804.401 301.381Z"/><path fill="#08CBEF" d="M751.94 530.824C762.44 527.716 777.821 515.037 787.055 508.296L824.107 481.805C828.71 478.477 835.324 472.476 840.248 470.408C841.437 469.909 842.324 470.074 843.391 470.716C844.601 471.444 845.398 472.843 845.657 474.208C846.184 476.983 845.402 481.383 843.78 483.736C841.24 487.422 773.058 535.637 763.73 541.142C761.661 542.363 759.762 543.107 757.375 543.435C755.997 543.625 754.766 543.495 753.438 543.072C757.834 537.807 756.2 535.142 751.94 530.824Z"/><path fill="white" d="M772.869 323.487C776.499 323.277 782.462 322.475 785.372 324.405C785.538 324.938 785.878 325.98 785.894 326.536C786.678 353.408 786.213 380.426 786.047 407.318C786.037 408.986 785.342 410.278 784.41 411.598C779.547 412.012 771.405 413.558 771.967 406.545C772.883 395.122 769.568 329.249 772.869 323.487Z"/><path fill="#08CBEF" d="M662.841 538.964C664.769 539.025 666.687 539.256 668.574 539.656L709.401 548.285C717.902 550.041 726.959 551.596 735.225 554.116C741.999 556.181 741.904 564.535 735.579 568.091C727.292 568.17 704.275 562.092 694.991 560.426C684.801 557.993 674.167 556.449 664.068 553.727C654.942 551.267 657.161 543.731 662.841 538.964Z"/><path fill="white" d="M743.017 342.197C746.644 341.996 750.794 341.344 753.856 343.27C756.84 349.47 753.755 396.715 754.789 406.682C755.081 409.497 753.953 410.237 751.877 411.721C748.493 411.812 744.375 412.276 741.496 410.583C739.135 407.147 740.755 354.627 740.54 346.82C740.475 344.437 741.357 343.589 743.017 342.197Z"/><path fill="#EDFDFB" d="M691.758 516.921C700.649 518.869 709.56 520.724 718.49 522.486C728.29 524.371 743.286 526.484 751.94 530.824C756.2 535.142 757.834 537.807 753.438 543.072C736.206 541.57 707.802 534.886 689.777 531.437C691.653 531.079 691.934 531.375 692.966 530.269C693.036 526.111 688.387 521.013 691.758 516.921Z"/><path fill="white" d="M710.954 362.519C714.18 362.383 720.427 361.655 722.777 363.544C723.633 365.596 724.001 367.893 724.008 370.177C724.05 382.812 723.965 395.485 723.951 408.109C723.949 409.344 722.991 410.584 722.178 411.468C709.383 413.382 709.03 409.759 709.668 398.092C709.955 392.844 708.615 365.371 710.954 362.519Z"/><path fill="#A5F2FA" d="M689.777 531.437C680.751 529.849 645.319 527.058 662.054 512.176C666.03 508.64 686.476 515.611 691.758 516.921C688.387 521.013 693.036 526.111 692.966 530.269C691.934 531.375 691.653 531.079 689.777 531.437Z"/><defs><linearGradient id="gradient_0" gradientUnits="userSpaceOnUse" x1="432.77737" y1="474.87579" x2="716.59662" y2="146.14584"><stop offset="0" stop-color="#013166"/><stop offset="1" stop-color="#0151BB"/></linearGradient></defs><path fill="url(#gradient_0)" d="M447.287 347.494C447.591 319.826 446.604 291.767 447.651 264.128C448.774 234.494 471.468 223.694 493.575 210.279L542.97 180.344L595.431 148.222C616.493 135.32 636.824 118.761 663.139 128.109C671.487 131.075 680.798 137.31 688.491 141.951L722.014 162.166L756.059 182.877C768.506 190.503 778.598 194.49 785.161 208.182C762.201 216.168 739.878 234.742 719.88 248.637C715.182 251.901 708.064 260.421 702.335 259.411C699.849 257.654 674.103 199.871 670.267 191.928C678.006 181.475 677.957 168.005 666.703 160.125C662.09 156.855 656.348 155.597 650.791 156.638C645.424 157.627 640.688 160.754 637.671 165.302C633.213 172.096 633.9 179.002 635.526 186.469L636.489 188.304C637.539 189.571 638.573 190.853 639.59 192.147C628.437 207.825 615.584 226.189 601.584 239.447C590.024 236.328 573.137 232.201 562.29 228.237C561.883 226.349 560.403 221.063 560.97 219.573L560.503 218.5C553.623 216.414 551.149 205.919 537.231 211.935C532.984 213.763 529.678 217.262 528.093 221.606C526.385 226.199 526.574 231.283 528.619 235.736C529.63 237.953 531.601 240.58 533.384 242.238C533.772 242.719 534.284 243.448 534.755 243.782C533.728 247.824 530.777 254.593 529.209 258.668C524.894 269.881 520.137 280.809 516.27 292.216L514.738 291.55C507.383 292.238 502.199 293.46 497.16 299.582C493.912 303.483 492.361 308.523 492.854 313.576C493.36 318.661 495.907 323.322 499.91 326.496C504.202 329.937 506.822 330.358 512.158 331.405C516.105 350.318 518.841 369.331 523.034 388.354C507.53 393.575 503.777 407.965 515.144 419.876L516.129 420.833C525.192 423.911 529.106 424.409 537.479 419.364L591.021 486.123C583.387 495.59 582.516 500.103 583.414 511.896C569.76 521.44 541.471 534.882 526.408 541.879L491.434 520.729C482.877 515.603 472.716 510.277 464.902 504.295C444.866 488.955 447.443 463.322 447.391 440.779L447.323 397.052L461.073 396.858C473.527 386.688 474.68 391.784 474.02 373.874C480.404 363.871 475.344 355.806 464.062 356.19L464.06 355.57C464.086 344.683 455.78 347.379 447.287 347.494Z"/><path fill="#014CA4" d="M560.503 218.5C563.788 216.634 583.537 209.19 588.176 207.299C604.154 200.805 619.943 193.859 635.526 186.469L636.489 188.304C637.539 189.571 638.573 190.853 639.59 192.147C628.437 207.825 615.584 226.189 601.584 239.447C590.024 236.328 573.137 232.201 562.29 228.237C561.883 226.349 560.403 221.063 560.97 219.573L560.503 218.5Z"/><path fill="#EDFDFB" d="M560.503 218.5C563.788 216.634 583.537 209.19 588.176 207.299C604.154 200.805 619.943 193.859 635.526 186.469L636.489 188.304C618.375 197.345 598.077 204.979 579.285 212.787C576.307 214.025 563.39 219.101 560.97 219.573L560.503 218.5Z"/><path fill="#EDFDFB" d="M533.384 242.238C533.772 242.719 534.284 243.448 534.755 243.782C533.728 247.824 530.777 254.593 529.209 258.668C524.894 269.881 520.137 280.809 516.27 292.216L514.738 291.55C516.617 281.405 528.889 252.841 533.384 242.238Z"/><path fill="#BBDBE8" d="M515.144 419.876L516.129 420.833C512.478 427.207 507.662 433.897 502.602 439.236C502.128 439.736 502.041 439.592 501.522 440.288C505.776 433.215 511.088 426.961 515.144 419.876Z"/><path fill="#08CBEF" d="M481.561 461.009C480.553 458.009 480.124 454.754 480.966 451.654C481.891 448.244 484.126 445.338 487.186 443.571C494.485 439.409 499.984 443.568 503.309 450.082C505.552 455.569 505.323 457.65 503.701 463.363L502.188 464.309C493.568 470.099 487.768 469.647 481.561 461.009Z"/><path fill="white" d="M503.309 450.082C505.552 455.569 505.323 457.65 503.701 463.363L502.188 464.309C493.568 470.099 487.768 469.647 481.561 461.009C492.749 461.234 498.664 461.646 503.309 450.082Z"/><path fill="#08CBEF" d="M516.995 476.847C521.727 471.447 528.98 474.767 530.455 481.264C529.952 489.741 523.551 493.425 516.696 487.865C513.801 484.265 514.104 481.934 515.918 478.009L516.995 476.847Z"/><path fill="#A5F2FA" d="M516.696 487.865C524.465 487.604 525.091 486.879 530.455 481.264C529.952 489.741 523.551 493.425 516.696 487.865Z"/><path fill="#08CBEF" d="M458.414 310.024C459.993 309.932 462.467 309.5 463.882 310.532C466.627 312.534 466.619 316.879 464.062 319.315C462.511 319.302 460.96 319.272 459.409 319.225C455.166 316.865 454.475 313.142 458.414 310.024Z"/><path fill="#EDFDFB" d="M503.701 463.363C507.325 466.17 513.818 473.287 516.995 476.847L515.918 478.009C511.743 474.267 506.264 468.407 502.188 464.309L503.701 463.363Z"/><path fill="#034184" d="M659.128 318.485C660.901 319.04 661.648 319.532 662.594 321.258C648.281 340.515 644.316 359.848 637.817 382.593C630.843 407.408 624.158 432.303 617.765 457.273C616.49 462.269 615.423 467.249 614.256 472.266C613.692 474.691 613.285 479.25 611.326 480.312C610.011 480.109 608.852 480.003 607.609 479.523L606.519 479.209C601.354 480.766 597.582 481.633 593.329 484.956C592.816 485.21 591.422 485.853 591.021 486.123L537.479 419.364C538.81 418.952 538.177 419.319 539.113 417.735C539.479 417.179 539.834 416.616 540.179 416.046C543.786 410.05 543.876 405.76 542.255 399.15C553.664 391.776 566.067 384.57 577.794 377.715C584.5 384.829 591.279 386.844 600.407 382.912L602.857 382.064C610.377 373.444 612.661 367.565 607.379 356.914C624.474 343.219 640.865 330.52 659.128 318.485Z"/><path fill="#014CA4" d="M659.128 318.485C660.901 319.04 661.648 319.532 662.594 321.258C648.281 340.515 644.316 359.848 637.817 382.593C630.843 407.408 624.158 432.303 617.765 457.273C616.49 462.269 615.423 467.249 614.256 472.266C613.692 474.691 613.285 479.25 611.326 480.312C610.011 480.109 608.852 480.003 607.609 479.523C609.423 473.194 611.348 467.616 611.995 461.049L610.768 459.096C612.22 447.359 612.107 435.377 611.822 423.58C611.463 408.719 606.109 396.316 600.407 382.912L602.857 382.064C610.377 373.444 612.661 367.565 607.379 356.914C624.474 343.219 640.865 330.52 659.128 318.485Z"/><path fill="#EDFDFB" d="M600.407 382.912L602.857 382.064C616.671 412.941 618.312 426.544 611.995 461.049L610.768 459.096C612.22 447.359 612.107 435.377 611.822 423.58C611.463 408.719 606.109 396.316 600.407 382.912Z"/><path fill="#EDFDFB" d="M537.479 419.364C538.81 418.952 538.177 419.319 539.113 417.735C553.893 435.339 567.786 453.945 582.562 471.591C586.021 475.722 590.181 480.62 593.329 484.956C592.816 485.21 591.422 485.853 591.021 486.123L537.479 419.364Z"/><path fill="#BBDBE8" d="M610.768 459.096L611.995 461.049C611.348 467.616 609.423 473.194 607.609 479.523L606.519 479.209C608.772 471.263 609.898 467.297 610.768 459.096Z"/><path fill="#014CA4" d="M677.882 286.679C678.89 286.447 679.407 286.533 680.441 286.546C681.953 288.049 681.915 290.374 682.226 292.65C678.454 295.941 674.558 298.862 670.418 301.67C647.172 317.438 625.275 334.72 603.056 351.855C592.644 347.263 588.105 347.489 579.046 354.58L555.459 337.479C547.228 331.307 538.514 325.666 530.38 319.276C531.255 315.224 531.422 313.819 531.512 309.674C546.481 306.467 566.362 303.979 581.963 301.545C613.642 296.601 646.165 290.978 677.882 286.679Z"/><path fill="#014CA4" d="M601.533 246.253C628.981 255.265 656.073 265.327 682.749 276.417C682.105 278.279 681.628 280.444 681.145 282.374C654.087 286.844 627 291.139 599.886 295.257L558.195 301.615C550.488 302.82 538.731 305.083 531.466 305.432C529.758 304.238 530.205 304.908 529.671 303.026C530.769 300.552 543.516 292.159 546.414 290.07C556.059 283.06 565.587 275.889 574.993 268.561C583.992 261.479 592.648 253.563 601.533 246.253Z"/><path fill="#014CA4" d="M643.204 195.543C643.825 195.86 644.45 196.169 645.079 196.469C652.366 199.943 657.321 199.21 664.672 196.571C669.996 205.98 675.561 218.384 680.292 228.243C685.068 238.196 691.512 251.175 695.076 261.356C690.779 264.112 688.479 266.585 685.044 270.206C679.516 268.069 673.827 266.03 668.258 263.971C648.703 256.811 626.223 248.751 607.101 240.971C620.753 226.002 631.365 211.88 643.204 195.543Z"/><path fill="#034184" d="M527.518 323.303C539.882 330.777 566.162 348.31 576.768 357.542C574.137 364.653 573.99 367.081 575.841 374.499L558.239 385.137L540.575 395.725C535.644 390.757 532.992 389.258 526.111 388.15C524.807 381.973 523.812 373.37 522.819 366.974L516.868 330.495C521.839 328.279 523.535 327.024 527.518 323.303Z"/><path fill="#014CA4" d="M561.362 234.538C571.247 237.289 587.202 241.457 596.422 244.843C579.702 259.964 546.694 287.408 526.67 298.323C522.877 295.217 520.952 293.753 516.27 292.216C520.137 280.809 524.894 269.881 529.209 258.668C530.777 254.593 533.728 247.824 534.755 243.782C547.218 247.851 554.387 246.063 561.362 234.538Z"/><path fill="#08CBEF" d="M464.062 356.19C463.858 364.926 464.635 377.931 463.798 386.021C463.185 391.948 430.755 390.982 426.123 389.274C421.907 385.902 422.154 353.852 425.417 349.285C429.383 346.802 442.089 347.514 447.287 347.494C455.78 347.379 464.086 344.683 464.06 355.57L464.062 356.19Z"/><path fill="#08CBEF" d="M609.499 650.394C614.731 646.857 619.851 644.492 626.123 645.811C641.201 648.982 643.548 670.214 630.714 677.994C622.453 683.003 612.088 678.555 607.152 671.134C604.459 666.812 604.741 661.425 605.486 656.508C606.978 653.484 607.289 652.919 609.499 650.394Z"/><path fill="#0FAEBB" d="M369.249 307.46C374.064 307.364 390.897 306.145 393.61 309.012C396.106 313.997 395.126 324.105 394.986 329.801C394.909 332.893 394.723 333.935 392.446 335.92C389.411 335.97 369.683 336.975 368.152 334.757C364.725 329.792 366.165 317.662 366.59 311.637C366.741 309.506 367.597 308.708 369.249 307.46Z"/><path fill="#1073A2" d="M605.486 656.508C583.597 644.484 562.386 628.97 540.298 617.023C537.472 615.494 534.314 612.808 535.076 609.348C536.448 607.786 536.485 607.705 538.441 607.256C542.474 607.526 600.941 644.585 609.499 650.394C607.289 652.919 606.978 653.484 605.486 656.508Z"/><path fill="#08CBEF" d="M381.335 392.656C385.658 392.573 398.824 391.984 402.574 392.969C405.298 395.845 405.456 414.772 402.361 418.046C396.992 418.075 386.724 419.42 382.622 417.647C377.788 415.558 378.944 396.249 381.335 392.656Z"/><path fill="#034184" d="M670.446 311.546C667.508 314.929 665.29 317.708 662.594 321.258C661.648 319.532 660.901 319.04 659.128 318.485C663.338 315.582 665.949 313.978 670.446 311.546Z"/><path fill="#0FAEBB" d="M770.336 166.345C767.895 166.755 761.564 168.348 759.876 167.539L759.912 168.131L759.351 167.747L758.982 168.075L760.119 167.417L758.978 168.041L760.381 168.044L760.542 167.256C762.986 166.428 766.639 165.547 769.215 164.841L770.336 166.345Z"/></svg>